<svg xmlns="http://www.w3.org/2000/svg" viewBox="0 0 520 176" fill="none"><g stroke="currentColor" opacity=".2"><path d="M-30 80 560 30M-20 132 540 78M80-10l35 210M223-10l-20 210M356-10l50 210M474-10l-32 210"/><path d="m20 63 85-7 7 43-80 9ZM128 43l65-6-2 54-55 2ZM235 83l105-11 5 46-112 17ZM363 31l86-8-3 40-74 8ZM44 123l69-8 5 48-68 12Z"/></g><path class="art-draw" d="m66 144 82-12 35-40 103-9 44-39 100-11" stroke="currentColor" stroke-width="1.6"/><g class="art-node"><circle cx="183" cy="92" r="18" fill="#fffdfa"/><circle cx="183" cy="92" r="17" stroke="currentColor"/><path d="m176 94 7-11 7 11v7h-14Z" stroke="currentColor"/></g><circle class="art-node" cx="330" cy="44" r="6" fill="currentColor"/><circle class="art-node" cx="66" cy="144" r="4" fill="currentColor"/></svg>